<svg width="22" height="22" viewBox="0 0 22 22" fill="none" xmlns="http://www.w3.org/2000/svg">
<path fill-rule="evenodd" clip-rule="evenodd" d="M2.8798 2.75734C2.79028 2.7506 2.66604 2.74999 2.43306 2.74999H0.916667C0.410406 2.74999 0 2.33959 0 1.83333C0 1.32707 0.410406 0.916661 0.916667 0.916661H2.43306C2.4417 0.916661 2.45034 0.91666 2.45898 0.916659C2.65575 0.916634 2.85058 0.91661 3.01755 0.929191C3.20335 0.94319 3.41921 0.976072 3.64252 1.07569C3.9568 1.21588 4.22528 1.44169 4.41724 1.7273C4.55364 1.93024 4.62303 2.13728 4.66865 2.31793C4.70966 2.48027 4.74301 2.67222 4.77671 2.86609C4.77819 2.8746 4.77966 2.88312 4.78115 2.89163L4.99956 4.14753L16.9291 4.50066C17.3965 4.51448 17.8005 4.52642 18.1332 4.56306C18.4849 4.6018 18.8336 4.67462 19.168 4.8528C19.6748 5.1228 20.0844 5.54466 20.3393 6.05923C20.5075 6.39881 20.5699 6.74946 20.5982 7.10213C20.625 7.43577 20.625 7.83993 20.625 8.30761V8.37521C20.625 8.81473 20.625 9.19598 20.6004 9.51214C20.5743 9.84741 20.5167 10.1804 20.3631 10.5067C20.1293 11.0034 19.7523 11.4187 19.2804 11.6993C18.9704 11.8836 18.6445 11.973 18.3133 12.0312C18.001 12.0862 17.6216 12.1229 17.1841 12.1652L8.26136 13.0287C7.81293 13.0721 7.4244 13.1097 7.10024 13.1154C6.75679 13.1215 6.41246 13.0948 6.06676 12.9678C5.54832 12.7774 5.09924 12.4352 4.778 11.9859C4.5638 11.6863 4.44668 11.3614 4.36134 11.0287C4.28079 10.7147 4.21392 10.3301 4.13675 9.88625L2.97492 3.20576C2.935 2.97622 2.91312 2.85392 2.89114 2.76688C2.89036 2.76378 2.8896 2.76085 2.88887 2.75806C2.88601 2.75782 2.88298 2.75758 2.8798 2.75734ZM5.32019 5.99116L5.93719 9.53891C6.02181 10.0254 6.07681 10.3378 6.13719 10.5732C6.19478 10.7978 6.24033 10.879 6.26935 10.9196C6.37643 11.0694 6.52612 11.1834 6.69894 11.2469C6.74577 11.2641 6.83624 11.2865 7.06799 11.2824C7.31098 11.2781 7.62676 11.2482 8.11829 11.2007L16.9745 10.3436C17.4543 10.2972 17.762 10.2667 17.9956 10.2257C18.2181 10.1865 18.3011 10.1486 18.3435 10.1234C18.5008 10.0299 18.6264 9.89147 18.7044 9.72592C18.7254 9.68133 18.7551 9.59502 18.7726 9.36981C18.791 9.13337 18.7917 8.82417 18.7917 8.34212C18.7917 7.83016 18.791 7.50029 18.7708 7.24882C18.7515 7.00819 18.7187 6.91798 18.6964 6.87298C18.6115 6.70146 18.4749 6.56084 18.306 6.47084C18.2617 6.44723 18.1725 6.41181 17.9325 6.38538C17.6818 6.35776 17.3521 6.34731 16.8403 6.33217L5.32019 5.99116Z" fill="#424551"/>
<path fill-rule="evenodd" clip-rule="evenodd" d="M7.79175 16.0417C7.28549 16.0417 6.87508 16.4521 6.87508 16.9583C6.87508 17.4646 7.28549 17.875 7.79175 17.875C8.29801 17.875 8.70841 17.4646 8.70841 16.9583C8.70841 16.4521 8.29801 16.0417 7.79175 16.0417ZM5.04175 16.9583C5.04175 15.4395 6.27296 14.2083 7.79175 14.2083C9.31053 14.2083 10.5418 15.4395 10.5418 16.9583C10.5418 18.4771 9.31053 19.7083 7.79175 19.7083C6.27296 19.7083 5.04175 18.4771 5.04175 16.9583Z" fill="#424551"/>
<path fill-rule="evenodd" clip-rule="evenodd" d="M16.5 16.0417C15.9937 16.0417 15.5833 16.4521 15.5833 16.9583C15.5833 17.4646 15.9937 17.875 16.5 17.875C17.0063 17.875 17.4167 17.4646 17.4167 16.9583C17.4167 16.4521 17.0063 16.0417 16.5 16.0417ZM13.75 16.9583C13.75 15.4395 14.9812 14.2083 16.5 14.2083C18.0188 14.2083 19.25 15.4395 19.25 16.9583C19.25 18.4771 18.0188 19.7083 16.5 19.7083C14.9812 19.7083 13.75 18.4771 13.75 16.9583Z" fill="#424551"/>
</svg>
