<!-- icon666.com - MILLIONS vector ICONS FREE --><svg fill="#fff" xmlns="http://www.w3.org/2000/svg" xmlns:xlink="http://www.w3.org/1999/xlink" version="1.1" id="Capa_1" x="0px" y="0px" viewBox="0 0 512 512" style="enable-background:new 0 0 512 512;" xml:space="preserve"><g><path d="M413.267,226.266h-11.959c-2.66-29.825-10.278-59.425-24.256-74.355c-35.215-37.612-138.086-43.926-199.78-24.078 c-3.943,1.269-6.111,5.494-4.843,9.436c1.269,3.943,5.494,6.113,9.436,4.843c28.621-9.207,67.4-12.512,103.731-8.841 c37.523,3.792,66.867,14.323,80.506,28.891c14.231,15.199,23.246,58.927,20.971,101.714c-0.385,7.24-1.072,14.112-2.03,20.523 c-0.045,0.227-0.081,0.458-0.105,0.691c-3.324,21.663-9.782,37.971-18.261,45.289c-11.715,10.111-31.71,17.92-56.39,22.542 c-0.538,0.04-1.068,0.138-1.58,0.29c-15.984,2.882-33.871,4.441-52.707,4.441c-18.84,0-36.729-1.559-52.715-4.442 c-0.45-0.133-0.914-0.225-1.385-0.272c-0.002,0-0.004,0-0.006,0c-0.055-0.005-0.11-0.01-0.165-0.015 c-0.004,0-0.008-0.001-0.012-0.001c-24.682-4.622-44.679-12.431-56.395-22.543c-8.479-7.318-14.937-23.626-18.261-45.289 c-0.024-0.234-0.06-0.464-0.105-0.691c-0.959-6.411-1.645-13.283-2.03-20.523c-2.275-42.787,6.74-86.515,20.971-101.715 c2.794-2.984,6.307-5.846,10.44-8.505c3.483-2.241,4.491-6.882,2.25-10.365c-2.242-3.484-6.882-4.491-10.365-2.25 c-5.172,3.327-9.638,6.984-13.275,10.868c-13.978,14.929-21.596,44.53-24.256,74.355h-1.299V125.947 c10.909-3.24,18.889-13.358,18.889-25.305c0-14.552-11.839-26.391-26.391-26.391S75.5,86.09,75.5,100.642 c0,11.949,7.981,22.068,18.893,25.306v100.725c-10.742,2.039-18.89,11.502-18.89,22.832v20.63c0,12.814,10.421,23.239,23.23,23.239 h14.518c3.385,18.26,9.876,37.663,22.271,48.361c10.483,9.048,25.905,16.392,44.771,21.648c-3.577,2.803-6.519,5.868-8.806,9.183 c-9.77,14.171-7.671,36.94-4.191,53.547c3.207,15.3,8.862,31.249,15.924,44.909c5.401,10.447,14.118,24.311,24.976,31.028 c10.722,6.633,29.263,9.95,47.804,9.95c18.541,0,37.084-3.317,47.807-9.951c12.711-7.868,25.673-27.952,34.673-53.724 c1.366-3.911-0.697-8.187-4.608-9.553c-3.912-1.368-8.188,0.697-9.553,4.608c-7.668,21.958-18.818,39.98-28.405,45.914 c-16.412,10.155-63.413,10.155-79.827,0c-12.811-7.925-28.113-37.648-34.109-66.257c-3.952-18.851-3.256-34.536,1.858-41.953 c1.602-2.322,3.852-4.543,6.684-6.619l14.435,46.831c6.954,22.536,27.468,37.678,51.046,37.678 c11.511,0,22.482-3.613,31.723-10.445c9.253-6.829,15.934-16.246,19.323-27.235l14.435-46.829c2.833,2.076,5.083,4.298,6.684,6.619 c4.419,6.406,5.575,19.066,3.171,34.733c-0.628,4.094,2.181,7.922,6.275,8.551c0.386,0.059,0.769,0.088,1.147,0.088 c3.64,0,6.835-2.655,7.404-6.363c2.138-13.932,2.894-33.141-5.65-45.526c-2.286-3.314-5.228-6.378-8.804-9.181 c18.865-5.256,34.287-12.6,44.771-21.648c12.395-10.698,18.886-30.101,22.271-48.361h5.918v49.213l-4.929,4.929 c-3.767-2.059-8.086-3.23-12.673-3.23c-14.619,0-26.513,11.894-26.513,26.513s11.894,26.513,26.513,26.513 c14.619,0,26.513-11.894,26.513-26.513c0-4.589-1.172-8.91-3.233-12.678l5.945-5.945c2.146-2.145,3.376-5.11,3.376-8.133v-51.566 c9.707-2.787,16.83-11.748,16.83-22.342v-20.63C436.497,236.691,426.076,226.266,413.267,226.266z M90.5,100.642 c0-6.281,5.11-11.391,11.391-11.391c6.281,0,11.391,5.11,11.391,11.391s-5.11,11.391-11.391,11.391 C95.61,112.033,90.5,106.924,90.5,100.642z M98.733,278.375c-4.538,0-8.23-3.696-8.23-8.24v-20.63c0-4.543,3.692-8.24,8.23-8.24 h11.031c-0.282,8.066-0.211,15.967,0.185,23.408c0.215,4.048,0.562,8.701,1.112,13.701H98.733z M292.712,416.873 c-2.437,7.902-7.242,14.675-13.901,19.589c-6.646,4.914-14.534,7.511-22.811,7.511c-16.957,0-31.711-10.891-36.712-27.099 l-14.863-48.219c15.832,2.614,33.226,3.999,51.575,3.999s35.743-1.385,51.575-3.999L292.712,416.873z M387.065,382.314 c-6.349,0-11.513-5.165-11.513-11.513s5.165-11.513,11.513-11.513c6.349,0,11.513,5.165,11.513,11.513 S393.414,382.314,387.065,382.314z M421.497,270.136c0,4.543-3.692,8.24-8.23,8.24H400.94c0.55-5,0.897-9.653,1.112-13.701 c0.396-7.441,0.467-15.342,0.185-23.408h11.031c4.538,0,8.23,3.696,8.23,8.24V270.136z"></path><path d="M143.547,258.813c0,33.874,27.559,61.434,61.433,61.434h102.04c33.874,0,61.433-27.559,61.433-61.434v-8.748 c0-33.874-27.559-61.434-61.433-61.434H204.98c-33.874,0-61.433,27.559-61.433,61.434V258.813z M158.547,250.065 c0-25.604,20.83-46.434,46.433-46.434h102.04c25.604,0,46.433,20.83,46.433,46.434v8.748c0,25.604-20.83,46.434-46.433,46.434 H204.98c-25.604,0-46.433-20.83-46.433-46.434V250.065z"></path><path d="M305.633,282.613c15.535,0,28.173-12.638,28.173-28.173s-12.638-28.174-28.173-28.174 c-15.535,0-28.174,12.639-28.174,28.174S290.099,282.613,305.633,282.613z M305.633,241.265c7.264,0,13.174,5.91,13.174,13.174 c0,7.264-5.91,13.174-13.174,13.174c-7.264,0-13.174-5.91-13.174-13.174C292.459,247.175,298.369,241.265,305.633,241.265z"></path><path d="M206.367,282.613c15.535,0,28.174-12.638,28.174-28.173s-12.639-28.174-28.174-28.174s-28.173,12.639-28.173,28.174 S190.832,282.613,206.367,282.613z M206.367,241.265c7.264,0,13.174,5.91,13.174,13.174c0,7.264-5.91,13.174-13.174,13.174 c-7.264,0-13.174-5.91-13.174-13.174C193.193,247.175,199.102,241.265,206.367,241.265z"></path><path d="M256,380.695c-14.48,0-26.26,11.78-26.26,26.26c0,14.48,11.78,26.26,26.26,26.26c14.48,0,26.26-11.78,26.26-26.26 C282.26,392.476,270.48,380.695,256,380.695z M256,418.215c-6.209,0-11.26-5.051-11.26-11.26s5.051-11.26,11.26-11.26 c6.209,0,11.26,5.051,11.26,11.26S262.209,418.215,256,418.215z"></path><path d="M409.727,0H218.149c-14.763,0-26.773,12.011-26.773,26.773v55.704c0,14.763,12.011,26.773,26.773,26.773h135.473 l33.543,35.439c2.236,2.361,5.264,3.621,8.369,3.621c1.44,0,2.898-0.271,4.299-0.83c4.422-1.761,7.28-5.975,7.28-10.736v-27.495 h2.613c14.762,0,26.773-12.011,26.773-26.773V26.773C436.5,12.011,424.489,0,409.727,0z M421.5,82.477 c0,6.492-5.282,11.774-11.773,11.774h-8.085c-5.254,0-9.528,4.274-9.528,9.528v24.318l-29.215-30.866 c-1.791-1.894-4.314-2.98-6.922-2.98H218.149c-6.492,0-11.773-5.282-11.773-11.774V26.773c0-6.492,5.282-11.774,11.774-11.774 h191.578c6.492,0,11.773,5.282,11.773,11.773V82.477z"></path><path d="M254.053,45.475h-4.666c-4.142,0-7.5,3.358-7.5,7.5s3.358,7.5,7.5,7.5h4.666c4.142,0,7.5-3.358,7.5-7.5 S258.195,45.475,254.053,45.475z"></path><path d="M295.532,45.475h-4.666c-4.142,0-7.5,3.358-7.5,7.5s3.358,7.5,7.5,7.5h4.666c4.142,0,7.5-3.358,7.5-7.5 S299.674,45.475,295.532,45.475z"></path><path d="M337.01,45.475h-4.666c-4.142,0-7.5,3.358-7.5,7.5s3.358,7.5,7.5,7.5h4.666c4.142,0,7.5-3.358,7.5-7.5 S341.152,45.475,337.01,45.475z"></path><path d="M378.489,45.475h-4.666c-4.142,0-7.5,3.358-7.5,7.5s3.358,7.5,7.5,7.5h4.666c4.142,0,7.5-3.358,7.5-7.5 S382.631,45.475,378.489,45.475z"></path></g></svg>