<svg width="32" height="32" viewBox="0 0 32 32" fill="none" xmlns="http://www.w3.org/2000/svg">
<rect opacity="0.12" width="32" height="32" rx="4" fill="#D9D9D9"/>
<g clip-path="url(#clip0_56_6370)">
<path d="M19.4286 9.00305L17.5771 9C15.497 9 14.1527 10.4167 14.1527 12.6095V14.2737H12.2911C12.1303 14.2737 12 14.4077 12 14.5729V16.9842C12 17.1494 12.1304 17.2832 12.2911 17.2832H14.1527V23.3676C14.1527 23.5328 14.283 23.6667 14.4439 23.6667H16.8727C17.0336 23.6667 17.1639 23.5327 17.1639 23.3676V17.2832H19.3405C19.5014 17.2832 19.6317 17.1494 19.6317 16.9842L19.6326 14.5729C19.6326 14.4936 19.6018 14.4176 19.5473 14.3614C19.4928 14.3053 19.4185 14.2737 19.3413 14.2737H17.1639V12.8629C17.1639 12.1849 17.3212 11.8406 18.1811 11.8406L19.4283 11.8402C19.589 11.8402 19.7193 11.7062 19.7193 11.5411V9.30211C19.7193 9.13717 19.5892 9.00336 19.4286 9.00305Z" fill="white"/>
</g>
<defs>
<clipPath id="clip0_56_6370">
<rect width="16" height="16" fill="white" transform="translate(7 7)"/>
</clipPath>
</defs>
</svg>
