<svg width="14" height="14" viewBox="0 0 14 14" fill="none" xmlns="http://www.w3.org/2000/svg">
<path fill-rule="evenodd" clip-rule="evenodd" d="M7.5225 2.07624C7.1802 1.98881 6.81941 1.98881 6.47711 2.07624C6.12075 2.16727 5.77515 2.40575 4.78962 3.12889L3.05629 4.40072C2.42199 4.86614 2.20903 5.02932 2.0585 5.22133C1.91384 5.40585 1.80607 5.61372 1.7405 5.83473C1.67226 6.0647 1.66647 6.32347 1.66647 7.08155V11.245C1.66647 11.7296 1.67371 11.8325 1.69518 11.8993C1.75981 12.1003 1.92655 12.2576 2.13961 12.3185C2.21039 12.3388 2.31945 12.3456 2.83314 12.3456H3.2498C3.3351 12.3456 3.35362 12.3454 3.36585 12.3448C3.70832 12.329 3.98218 12.0706 3.999 11.7476C3.9996 11.7361 3.9998 11.7185 3.9998 11.638V9.82992C3.9998 8.26682 5.34295 6.9997 6.9998 6.9997C8.65666 6.9997 9.9998 8.26682 9.9998 9.82992V11.638C9.9998 11.7185 10 11.7361 10.0006 11.7476C10.0174 12.0706 10.2913 12.329 10.6338 12.3448C10.646 12.3454 10.6645 12.3456 10.7498 12.3456H11.1665C11.6802 12.3456 11.7892 12.3388 11.86 12.3185C12.0731 12.2576 12.2398 12.1003 12.3044 11.8993C12.3259 11.8325 12.3331 11.7296 12.3331 11.245V7.08155C12.3331 6.32347 12.3273 6.0647 12.2591 5.83473C12.1935 5.61372 12.0858 5.40585 11.9411 5.22133C11.7906 5.02932 11.5776 4.86614 10.9433 4.40072L9.21 3.12889C8.22446 2.40575 7.87886 2.16727 7.5225 2.07624ZM6.12865 0.862102C6.69915 0.716376 7.30046 0.716376 7.87096 0.862102C8.51982 1.02784 9.0891 1.44601 9.9151 2.0527C9.9524 2.08008 9.9902 2.10785 10.0286 2.13599L11.7619 3.40783C11.7859 3.42541 11.8095 3.44274 11.8328 3.45985C12.3691 3.85304 12.74 4.12504 13.0131 4.47335C13.2542 4.78088 13.4338 5.12732 13.5431 5.49567C13.6669 5.91287 13.6667 6.35609 13.6665 6.9968C13.6665 7.02467 13.6665 7.05291 13.6665 7.08155V11.245C13.6665 11.2716 13.6665 11.298 13.6665 11.3241C13.667 11.6834 13.6674 11.9937 13.5804 12.2644C13.3865 12.8674 12.8862 13.3393 12.247 13.5222C11.9601 13.6044 11.6312 13.604 11.2504 13.6035C11.2227 13.6035 11.1947 13.6035 11.1665 13.6035H10.7358C10.6724 13.6035 10.6179 13.6035 10.5683 13.6012C9.5409 13.5536 8.71935 12.7785 8.66888 11.8093C8.66645 11.7625 8.66646 11.7111 8.66647 11.6512V9.82992C8.66647 8.96153 7.92028 8.25757 6.9998 8.25757C6.07933 8.25757 5.33314 8.96153 5.33314 9.82992V11.6512C5.33315 11.7111 5.33316 11.7625 5.33073 11.8093C5.28026 12.7785 4.45868 13.5536 3.43127 13.6012C3.38171 13.6035 3.32721 13.6035 3.26377 13.6035H2.83314C2.8049 13.6035 2.77694 13.6035 2.74925 13.6035C2.36841 13.604 2.03946 13.6044 1.75257 13.5222C1.11337 13.3393 0.613161 12.8674 0.419261 12.2644C0.332231 11.9937 0.332621 11.6834 0.333071 11.3241C0.333101 11.298 0.333141 11.2716 0.333141 11.245V7.08155C0.333141 7.05291 0.333131 7.02467 0.333121 6.9968C0.332891 6.35609 0.332731 5.91287 0.456521 5.49567C0.565811 5.12732 0.745411 4.78088 0.986521 4.47335C1.2596 4.12503 1.63055 3.85303 2.16677 3.45985C2.1901 3.44274 2.21374 3.42541 2.2377 3.40783L3.97103 2.13599C4.00939 2.10785 4.0472 2.08008 4.08448 2.0527C4.91047 1.44601 5.47979 1.02784 6.12865 0.862102Z" fill="white"/>
</svg>
