<svg width="32" height="32" viewBox="0 0 32 32" fill="none" xmlns="http://www.w3.org/2000/svg">
<g clip-path="url(#clip0_56_6364)">
<path d="M22.6536 13.2533C22.6224 12.5448 22.5078 12.0578 22.3437 11.6357C22.1744 11.1878 21.9139 10.7867 21.5727 10.4533C21.2392 10.1147 20.8355 9.85154 20.3927 9.68488C19.9682 9.52077 19.4837 9.4062 18.7753 9.37497C18.0615 9.34109 17.835 9.33325 16.0247 9.33325C14.2145 9.33325 13.9879 9.34109 13.2768 9.37232C12.5683 9.40356 12.0813 9.51822 11.6593 9.68224C11.2113 9.85154 10.8102 10.112 10.4768 10.4533C10.1382 10.7867 9.87514 11.1904 9.70838 11.6332C9.54427 12.0578 9.4297 12.5422 9.39847 13.2506C9.36459 13.9644 9.35675 14.191 9.35675 16.0012C9.35675 17.8115 9.36459 18.0381 9.39582 18.7491C9.42706 19.4576 9.54172 19.9446 9.70584 20.3667C9.87514 20.8146 10.1382 21.2157 10.4768 21.5491C10.8102 21.8877 11.2139 22.1509 11.6567 22.3175C12.0813 22.4816 12.5657 22.5962 13.2742 22.6274C13.9852 22.6588 14.2119 22.6665 16.0222 22.6665C17.8324 22.6665 18.059 22.6588 18.7701 22.6274C19.4785 22.5962 19.9656 22.4816 20.3875 22.3175C21.2836 21.9711 21.9921 21.2626 22.3385 20.3667C22.5025 19.9421 22.6172 19.4576 22.6484 18.7491C22.6796 18.0381 22.6875 17.8115 22.6875 16.0012C22.6875 14.191 22.6848 13.9644 22.6536 13.2533ZM21.4529 18.6971C21.4242 19.3482 21.3148 19.6998 21.2237 19.9342C20.9996 20.5151 20.5386 20.9761 19.9578 21.2002C19.7233 21.2913 19.3692 21.4007 18.7206 21.4293C18.0173 21.4606 17.8064 21.4684 16.0274 21.4684C14.2483 21.4684 14.0348 21.4606 13.3341 21.4293C12.6829 21.4007 12.3313 21.2913 12.0968 21.2002C11.8078 21.0933 11.5447 20.924 11.3311 20.7026C11.1097 20.4864 10.9404 20.2259 10.8336 19.9369C10.7424 19.7025 10.633 19.3482 10.6045 18.6997C10.5731 17.9964 10.5654 17.7854 10.5654 16.0064C10.5654 14.2274 10.5731 14.0138 10.6045 13.3132C10.633 12.662 10.7424 12.3104 10.8336 12.076C10.9404 11.7868 11.1097 11.5238 11.3338 11.3102C11.5499 11.0888 11.8103 10.9195 12.0995 10.8127C12.3339 10.7216 12.6882 10.6122 13.3367 10.5835C14.04 10.5523 14.251 10.5444 16.0299 10.5444C17.8116 10.5444 18.0225 10.5523 18.7232 10.5835C19.3744 10.6122 19.726 10.7216 19.9604 10.8127C20.2495 10.9195 20.5126 11.0888 20.7261 11.3102C20.9475 11.5264 21.1168 11.7868 21.2237 12.076C21.3148 12.3104 21.4242 12.6646 21.4529 13.3132C21.4841 14.0165 21.492 14.2274 21.492 16.0064C21.492 17.7854 21.4841 17.9938 21.4529 18.6971Z" fill="white"/>
<path d="M16.0247 12.5762C14.1338 12.5762 12.5996 14.1103 12.5996 16.0013C12.5996 17.8924 14.1338 19.4264 16.0247 19.4264C17.9157 19.4264 19.4499 17.8924 19.4499 16.0013C19.4499 14.1103 17.9157 12.5762 16.0247 12.5762ZM16.0247 18.2231C14.798 18.2231 13.8029 17.2282 13.8029 16.0013C13.8029 14.7745 14.798 13.7795 16.0247 13.7795C17.2516 13.7795 18.2465 14.7745 18.2465 16.0013C18.2465 17.2282 17.2516 18.2231 16.0247 18.2231Z" fill="white"/>
<path d="M20.385 12.4407C20.385 12.8823 20.027 13.2403 19.5853 13.2403C19.1437 13.2403 18.7857 12.8823 18.7857 12.4407C18.7857 11.9991 19.1437 11.6411 19.5853 11.6411C20.027 11.6411 20.385 11.9991 20.385 12.4407Z" fill="white"/>
</g>
<rect opacity="0.12" width="32" height="32" rx="4" fill="#D9D9D9"/>
<defs>
<clipPath id="clip0_56_6364">
<rect width="14" height="14" fill="white" transform="translate(9 9)"/>
</clipPath>
</defs>
</svg>
