<svg width="22" height="19" viewBox="0 0 22 19" fill="none" xmlns="http://www.w3.org/2000/svg">
<path fill-rule="evenodd" clip-rule="evenodd" d="M3 2.26927C2.44772 2.26927 2 2.69976 2 3.23081L2 4.67311H19.5V3.23083C19.5 2.69979 19.0523 2.2693 18.5 2.2693L3 2.26927ZM19.5 6.59619H2V9.00004H19.5V6.59619ZM19.5 10.9231H2L2 15.25C2 15.7811 2.44771 16.2116 3 16.2116L18.5 16.2116C19.0523 16.2116 19.5 15.7811 19.5 15.25V10.9231ZM5.36442e-07 3.23081C5.96046e-07 1.63768 1.34315 0.346186 3.00001 0.346191L18.5 0.346219C20.1569 0.346222 21.5 1.63771 21.5 3.23083V15.25C21.5 16.8432 20.1569 18.1347 18.5 18.1347L3 18.1347C1.34314 18.1347 -1.19209e-07 16.8432 0 15.25L5.36442e-07 3.23081Z" fill="white"/>
</svg>
