<svg width="20" height="20" viewBox="0 0 20 20" fill="none" xmlns="http://www.w3.org/2000/svg">
<path fill-rule="evenodd" clip-rule="evenodd" d="M9.99955 16.5898C6.167 14.4069 4.02946 12.2373 2.99582 10.3549C1.93789 8.42825 2.03019 6.80552 2.61724 5.65381C3.82389 3.28654 7.25522 2.52956 9.34586 5.17371L9.9995 6.00041L10.6532 5.17375C12.7442 2.52949 16.1758 3.28659 17.3824 5.65381C17.9694 6.8055 18.0617 8.42822 17.0037 10.3549C15.97 12.2373 13.8323 14.4069 9.99955 16.5898ZM9.99958 3.42197C7.05858 0.627295 2.71992 1.78233 1.13235 4.89693C0.261063 6.60628 0.249161 8.81555 1.5349 11.1571C2.80924 13.4779 5.34999 15.9275 9.59643 18.2746L9.99954 18.4974L10.4027 18.2746C14.6493 15.9275 17.1902 13.4779 18.4646 11.1571C19.7504 8.81557 19.7386 6.60629 18.8673 4.89693C17.2797 1.78227 12.9409 0.627337 9.99958 3.42197Z" fill="#424551"/>
</svg>
