<svg width="32" height="32" viewBox="0 0 32 32" fill="none" xmlns="http://www.w3.org/2000/svg">
<path fill-rule="evenodd" clip-rule="evenodd" d="M22.2602 10.7427C22.9455 10.9272 23.4859 11.4675 23.6703 12.153C24.0131 13.4049 23.9999 16.0145 23.9999 16.0145C23.9999 16.0145 23.9999 18.6108 23.6705 19.8629C23.4859 20.5482 22.9456 21.0886 22.2602 21.273C21.0081 21.6026 16 21.6026 16 21.6026C16 21.6026 11.0049 21.6026 9.73974 21.26C9.05432 21.0754 8.51404 20.535 8.32947 19.8497C8 18.6108 8 16.0013 8 16.0013C8 16.0013 8 13.4049 8.32947 12.153C8.51391 11.4677 9.0675 10.9141 9.73962 10.7296C10.9917 10.4 15.9998 10.4 15.9998 10.4C15.9998 10.4 21.0081 10.4 22.2602 10.7427ZM18.5699 16.0013L14.4053 18.4V13.6027L18.5699 16.0013Z" fill="white"/>
<rect opacity="0.12" width="32" height="32" rx="4" fill="#D9D9D9"/>
</svg>
